<svg clip-rule="evenodd" fill-rule="evenodd" stroke-linejoin="round" stroke-miterlimit="2" viewBox="0 0 968 209"
     xml:space="preserve" xmlns="http://www.w3.org/2000/svg">
  <g fill-rule="nonzero">
    <path d="M278.41 174.505c-6-.12-11.61-1.201-16.83-3.243s-9.78-5.103-13.68-9.186-6.99-9.187-9.27-15.311-3.42-13.27-3.42-21.436c0-6.844.9-13.24 2.7-19.183s4.5-11.138 8.1-15.582 8.1-7.955 13.5-10.537 11.7-3.873 18.9-3.873c7.32 0 13.68 1.291 19.08 3.873s9.9 6.064 13.5 10.447 6.27 9.577 8.01 15.582 2.61 12.429 2.61 19.273c0 7.446-1.02 14.17-3.06 20.175s-4.95 11.168-8.73 15.491-8.34 7.656-13.68 9.997-11.25 3.513-17.73 3.513zm31.68-49.176c0-5.524-.6-10.687-1.8-15.49s-3.06-8.977-5.58-12.52-5.76-6.334-9.72-8.376-8.82-3.062-14.58-3.062c-5.64 0-10.47 1.11-14.49 3.332s-7.29 5.164-9.81 8.827-4.38 7.865-5.58 12.609-1.8 9.637-1.8 14.68c0 5.765.69 11.078 2.07 15.942s3.39 9.036 6.03 12.519 5.94 6.184 9.9 8.106 8.52 2.882 13.68 2.882c5.64 0 10.47-1.111 14.49-3.333s7.29-5.193 9.81-8.916 4.38-7.926 5.58-12.61 1.8-9.546 1.8-14.59zM353.485 125.695c0 5.284.72 10.297 2.16 15.04s3.51 8.887 6.21 12.43 6 6.364 9.9 8.466 8.31 3.152 13.23 3.152c5.52 0 10.35-1.111 14.49-3.333s7.53-5.253 10.17-9.096 4.56-8.316 5.76-13.42 1.68-10.597 1.44-16.482c0-5.884-.81-11.078-2.43-15.58s-3.87-8.317-6.75-11.44-6.24-5.493-10.08-7.114-8.04-2.432-12.6-2.432c-5.04 0-9.54 1.02-13.5 3.062s-7.26 4.834-9.9 8.376-4.65 7.746-6.03 12.61-2.07 10.117-2.07 15.76zm0 83.04h-10.8V78.68h10.8v16.392h.36c1.56-3.002 3.57-5.704 6.03-8.106s5.16-4.383 8.1-5.944 5.97-2.762 9.09-3.603 6.18-1.26 9.18-1.26c7.56 0 13.98 1.26 19.26 3.782s9.63 5.974 13.05 10.357 5.91 9.577 7.47 15.581 2.34 12.43 2.34 19.274c0 6.485-.84 12.73-2.52 18.734s-4.23 11.258-7.65 15.761-7.74 8.106-12.96 10.808-11.37 4.053-18.45 4.053c-6.6 0-12.93-1.471-18.99-4.413s-10.83-7.296-14.31-13.06v51.697zM484.16 172.328c-1.32.24-3.06.66-5.22 1.261s-4.56.9-7.2.9c-5.4 0-9.51-1.35-12.33-4.052s-4.23-7.536-4.23-14.5v-68.27h-13.14v-9.006h13.14V52.722h10.8v25.939h17.46v9.006h-17.46v63.946c0 2.282.06 4.263.18 5.945s.48 3.062 1.08 4.143 1.53 1.86 2.79 2.341 3.03.72 5.31.72c1.44 0 2.91-.12 4.41-.36s2.97-.54 4.41-.9v8.826zM503.06 171.978V78.671h10.8v93.307h-10.8zm-.54-113.662V42.285h11.88v16.031h-11.88z"
          fill="#bae5fa"/>
      <path d="M553.46 125.695c0 5.284.72 10.297 2.16 15.04s3.51 8.887 6.21 12.43 6 6.364 9.9 8.466 8.31 3.152 13.23 3.152c5.52 0 10.35-1.111 14.49-3.333s7.53-5.253 10.17-9.096 4.56-8.316 5.76-13.42 1.68-10.597 1.44-16.482c0-5.884-.81-11.078-2.43-15.58s-3.87-8.317-6.75-11.44-6.24-5.493-10.08-7.114-8.04-2.432-12.6-2.432c-5.04 0-9.54 1.02-13.5 3.062s-7.26 4.834-9.9 8.376-4.65 7.746-6.03 12.61-2.07 10.117-2.07 15.76zm0 83.04h-10.8V78.68h10.8v16.392h.36c1.56-3.002 3.57-5.704 6.03-8.106s5.16-4.383 8.1-5.944 5.97-2.762 9.09-3.603 6.18-1.26 9.18-1.26c7.56 0 13.98 1.26 19.26 3.782s9.63 5.974 13.05 10.357 5.91 9.577 7.47 15.581 2.34 12.43 2.34 19.274c0 6.485-.84 12.73-2.52 18.734s-4.23 11.258-7.65 15.761-7.74 8.106-12.96 10.808-11.37 4.053-18.45 4.053c-6.6 0-12.93-1.471-18.99-4.413s-10.83-7.296-14.31-13.06v51.697zM662.71 171.978h-10.8V78.671h10.8v17.472h.36c3-7.445 6.87-12.639 11.61-15.58s11.01-4.414 18.81-4.414v11.708c-6.12-.12-11.16.841-15.12 2.883s-7.11 4.803-9.45 8.286-3.96 7.595-4.86 12.338-1.35 9.697-1.35 14.861v45.753zM712.935 171.978V78.671h10.8v93.307h-10.8zm-.54-113.662V42.285h11.88v16.031h-11.88zM757.585 142.807c1.68 8.046 4.71 13.72 9.09 17.022s10.65 4.954 18.81 4.954c3.96 0 7.38-.48 10.26-1.441s5.25-2.252 7.11-3.873 3.27-3.452 4.23-5.494 1.44-4.203 1.44-6.485c0-4.563-1.47-7.955-4.41-10.177s-6.63-3.963-11.07-5.224-9.24-2.341-14.4-3.242-9.96-2.252-14.4-4.053-8.13-4.383-11.07-7.746-4.41-8.105-4.41-14.23c0-7.805 2.85-14.2 8.55-19.184s13.77-7.475 24.21-7.475c10.08 0 18.27 2.252 24.57 6.755s10.11 12.039 11.43 22.606h-10.98c-.96-7.205-3.69-12.279-8.19-15.22s-10.17-4.414-17.01-4.414-12.06 1.471-15.66 4.413-5.4 6.815-5.4 11.619c0 4.203 1.47 7.415 4.41 9.637s6.63 4.022 11.07 5.403 9.24 2.612 14.4 3.693 9.96 2.612 14.4 4.593 8.13 4.654 11.07 8.016 4.41 8.046 4.41 14.05c0 4.443-.96 8.376-2.88 11.799s-4.56 6.274-7.92 8.556-7.35 3.993-11.97 5.134-9.69 1.71-15.21 1.71-10.41-.81-14.67-2.43-7.89-3.874-10.89-6.756-5.34-6.244-7.02-10.087-2.64-7.986-2.88-12.429h10.98zM850.635 171.978h-10.8V78.671h10.8v14.05h.36c2.76-5.404 6.72-9.517 11.88-12.339s10.8-4.233 16.92-4.233c4.32 0 7.98.48 10.98 1.441s5.55 2.252 7.65 3.873 3.84 3.512 5.22 5.674 2.55 4.503 3.51 7.025c3.12-6.124 7.29-10.658 12.51-13.6s11.19-4.413 17.91-4.413c6.36 0 11.43 1.05 15.21 3.152s6.69 4.864 8.73 8.286 3.39 7.356 4.05 11.799.99 9.006.99 13.69v58.902h-10.8v-64.486c0-6.725-1.41-12.009-4.23-15.852s-8.07-5.764-15.75-5.764c-3.96 0-7.77.87-11.43 2.612s-6.87 4.413-9.63 8.016c-1.2 1.56-2.19 3.392-2.97 5.494s-1.41 4.293-1.89 6.574-.81 4.564-.99 6.845-.27 4.383-.27 6.305v50.256h-10.8v-64.486c0-6.725-1.41-12.009-4.23-15.852s-8.07-5.764-15.75-5.764c-3.96 0-7.77.87-11.43 2.612s-6.87 4.413-9.63 8.016c-1.2 1.56-2.19 3.392-2.97 5.494s-1.41 4.293-1.89 6.574-.81 4.564-.99 6.845-.27 4.383-.27 6.305v50.256z"
            fill="#1999c8"/>
  </g>
    <path d="m202.048 174.978-101.022-58.325L.004 174.978h202.048z" fill="#3b839d"/>
    <path d="M202.048 174.978 101.026.001v116.652l101.022 58.325z" fill="#bae5fa"/>
    <path d="M101.022.001v116.652L0 174.978 101.022.001z" fill="#69c9ec"/>
</svg>
